<svg id="Laag_1" data-name="Laag 1" xmlns="http://www.w3.org/2000/svg" viewBox="0 0 64 64"><defs><style>.cls-1{fill:#d8913a;}</style></defs><title>Plus</title><path class="cls-1" d="M36.06,6.68a2.75,2.75,0,0,0-1.2.57A3.27,3.27,0,0,0,33.67,10V54a3.23,3.23,0,0,0,1.19,2.74,2.75,2.75,0,0,0,1.2.57H27.94a2.75,2.75,0,0,0,1.2-.57A3.21,3.21,0,0,0,30.34,54V10A3.92,3.92,0,0,0,30,8.24a3.05,3.05,0,0,0-.83-1,2.75,2.75,0,0,0-1.2-.57Z"/><path class="cls-1" d="M57.32,36.06a2.75,2.75,0,0,0-.57-1.2A3.27,3.27,0,0,0,54,33.67H10a3.23,3.23,0,0,0-2.74,1.19,2.75,2.75,0,0,0-.57,1.2V27.94a2.75,2.75,0,0,0,.57,1.2A3.21,3.21,0,0,0,10,30.34H54A3.92,3.92,0,0,0,55.76,30a3.05,3.05,0,0,0,1-.83,2.75,2.75,0,0,0,.57-1.2Z"/></svg>