<svg id="Laag_1" data-name="Laag 1" xmlns="http://www.w3.org/2000/svg" viewBox="0 0 290.43 25.05"><defs><style>.cls-1{fill:none;}.cls-1,.cls-3{stroke:#d8923b;stroke-linecap:round;stroke-linejoin:round;stroke-width:2px;}.cls-2{fill:#d8923b;}.cls-3{fill:#fff;}</style></defs><title>Separator-2</title><rect class="cls-1" x="12.71" y="5.16" width="14.82" height="14.82" transform="translate(14.78 -10.55) rotate(45)"/><rect class="cls-2" x="16.49" y="8.94" width="7.26" height="7.26" rx="0.8" transform="translate(14.78 -10.55) rotate(45)"/><line class="cls-3" x1="11.27" y1="21.4" x2="2.46" y2="12.58"/><line class="cls-3" x1="11.27" y1="3.74" x2="2.46" y2="12.56"/><rect class="cls-1" x="263.59" y="5.16" width="14.82" height="14.82" transform="translate(453.74 213.08) rotate(-135)"/><rect class="cls-2" x="267.37" y="8.94" width="7.26" height="7.26" rx="0.8" transform="translate(453.74 213.08) rotate(-135)"/><line class="cls-3" x1="279.84" y1="3.74" x2="288.66" y2="12.56"/><line class="cls-3" x1="279.84" y1="21.4" x2="288.66" y2="12.58"/><line class="cls-3" x1="124.03" y1="12.57" x2="30.6" y2="12.57"/><line class="cls-3" x1="260.52" y1="12.57" x2="167.09" y2="12.57"/><circle class="cls-1" cx="145.56" cy="12.57" r="5.55"/><circle class="cls-1" cx="164.1" cy="12.57" r="2.99"/><circle class="cls-1" cx="127.02" cy="12.57" r="2.99"/></svg>