<svg id="Laag_1" data-name="Laag 1" xmlns="http://www.w3.org/2000/svg" viewBox="0 0 25.05 864.85"><defs><style>.cls-1{fill:none;stroke:#d8923b;stroke-linecap:round;stroke-linejoin:round;stroke-width:2px;}.cls-2{fill:#d8923b;}</style></defs><title>Separator-3</title><rect class="cls-1" x="5.12" y="13.37" width="14.82" height="14.82" transform="translate(-11.03 14.94) rotate(-45)"/><rect class="cls-2" x="8.9" y="17.15" width="7.26" height="7.26" rx="0.8" transform="translate(-11.03 14.94) rotate(-45)"/><line class="cls-1" x1="3.69" y1="11.93" x2="12.51" y2="3.12"/><line class="cls-1" x1="21.35" y1="11.93" x2="12.53" y2="3.12"/><line class="cls-1" x1="12.52" y1="411.56" x2="12.52" y2="31.26"/><rect class="cls-1" x="5.11" y="836.66" width="14.82" height="14.82" transform="translate(-593.18 256.08) rotate(-45)"/><rect class="cls-2" x="8.89" y="840.44" width="7.26" height="7.26" rx="0.8" transform="translate(-593.18 256.08) rotate(-45)"/><line class="cls-1" x1="21.35" y1="852.9" x2="12.53" y2="861.73"/><line class="cls-1" x1="3.69" y1="852.9" x2="12.51" y2="861.73"/><line class="cls-1" x1="12.52" y1="833.58" x2="12.52" y2="454.62"/><circle class="cls-1" cx="12.52" cy="433.09" r="5.55"/><circle class="cls-1" cx="12.52" cy="451.63" r="2.99"/><circle class="cls-1" cx="12.52" cy="414.55" r="2.99"/></svg>