<svg id="Laag_1" data-name="Laag 1" xmlns="http://www.w3.org/2000/svg" viewBox="0 0 64 64"><defs><style>.cls-1{fill:none;stroke:#d8923b;stroke-linecap:round;stroke-linejoin:round;stroke-width:2px;}</style></defs><title>Swords</title><polygon class="cls-1" points="43.45 37.63 37.99 43.09 12.88 17.98 8.39 8.03 18.34 12.52 43.45 37.63"/><circle class="cls-1" cx="53.32" cy="52.96" r="2.65"/><rect class="cls-1" x="31.91" y="39.66" width="21" height="4.77" rx="2.39" transform="translate(-17.31 42.3) rotate(-45)"/><polyline class="cls-1" points="50.95 54.33 46.45 50.12 40.77 47.08 47.42 40.44 50.47 46.1 54.57 50.48"/><polyline class="cls-1" points="32.18 37.28 26.01 43.45 20.55 37.99 26.25 32.28 26.72 31.82"/><polyline class="cls-1" points="32.61 25.92 45.66 12.88 55.61 8.39 51.12 18.34 37.64 31.82"/><circle class="cls-1" cx="10.68" cy="53.32" r="2.65"/><rect class="cls-1" x="11.11" y="40.02" width="20.96" height="4.77" rx="2.39" transform="translate(36.31 -2.85) rotate(45)"/><polyline class="cls-1" points="9.31 50.95 13.52 46.45 16.56 40.77 23.2 47.42 17.54 50.47 13.16 54.57"/></svg>